<?xml version="1.0" encoding="iso-8859-1"?>
<!-- Generator: Adobe Illustrator 19.0.0, SVG Export Plug-In . SVG Version: 6.00 Build 0)  -->
<svg version="1.1" id="Layer_1" xmlns="http://www.w3.org/2000/svg" xmlns:xlink="http://www.w3.org/1999/xlink" x="0px" y="0px"
	 viewBox="0 0 512 512" style="enable-background:new 0 0 512 512;" xml:space="preserve">
<path style="fill:#3B913E;" d="M301.284,26.954c-55.546,0-56.843,34.873-56.843,34.873s0.33,8.795,7.43,17.442
	c0,0,128.148,20.457,157.286,56.957c29.639,37.103,45.955,95.061,45.955,142.529l11.378,22.756l34.133-34.133
	C500.622,147.775,414.72,48.219,301.284,26.954z"/>
<path style="fill:#26852A;" d="M420.534,136.226c-29.138-36.5-70.042-62.601-115.166-73.489c0,0-19.957-5.848-53.498-5.848v22.38
	c6.872,8.385,20.07,16.646,45.488,16.646c77.357,18.671,134.997,88.462,134.997,171.463l31.733,31.733
	c1.582-10.354,2.401-20.946,2.401-31.733C466.489,219.91,450.173,173.329,420.534,136.226z"/>
<path style="fill:#28D38C;" d="M432.356,267.378h34.133c0,143.36-94.424,221.867-210.489,221.867S34.133,383.443,34.133,267.378
	c0-47.468,16.316-94.037,45.955-131.152c29.138-36.489,67.903-65.684,145.783-89.498l46.558,33.405
	c5.359,8.59,14.382,14.62,24.929,15.781c-10.365,10.991-25.054,17.863-41.358,17.863c-16.293,0-30.982-6.861-41.358-17.852
	c-77.357,18.671-134.997,88.451-134.997,171.452c0,97.246,79.11,176.356,176.356,176.356S432.356,364.624,432.356,267.378z"/>
<path style="fill:#4FC153;" d="M466.489,267.378h34.133C500.622,402.478,391.1,512,256,512S11.378,402.478,11.378,267.378
	c0-118.397,84.105-217.134,195.834-239.753C217.156,11.082,235.281,0,256,0c20.48,0,35.374,10.718,45.284,26.954
	c-18.796,0.057-34.088,16.054-34.088,34.873c0,6.713,1.911,13.005,5.234,18.307c-36.204,2.321-46.558-22.027-46.558-22.027
	l-19.24,4.642c-45.124,10.889-86.027,36.989-115.166,73.478C61.827,173.34,45.511,219.91,45.511,267.378
	c0,116.065,94.424,210.489,210.489,210.489S466.489,383.443,466.489,267.378z"/>
<circle cx="237.204" cy="38.364" r="8.533"/>
<g>
</g>
<g>
</g>
<g>
</g>
<g>
</g>
<g>
</g>
<g>
</g>
<g>
</g>
<g>
</g>
<g>
</g>
<g>
</g>
<g>
</g>
<g>
</g>
<g>
</g>
<g>
</g>
<g>
</g>
</svg>
